<svg width="32" height="46" viewBox="0 0 32 46" fill="none" xmlns="http://www.w3.org/2000/svg">
<path d="M15.9467 29.568C19.7387 29.568 22.7628 26.496 22.7628 22.752V6.816C22.7628 3.024 19.6907 0 15.9467 0C12.1547 0 9.13074 3.072 9.13074 6.816V22.752C9.13074 26.496 12.2027 29.568 15.9467 29.568Z" fill="#1E88E5"/>
<path d="M13.6797 38.4818V45.6338H18.2397V38.5297C17.5197 38.6257 16.7517 38.6258 15.9837 38.6258C15.1677 38.6738 14.4477 38.6258 13.6797 38.4818Z" fill="#4CAF50"/>
<path d="M7.87198 30.8796C5.85598 28.8156 4.56 26.3197 4.56 22.9117H0C0 27.4717 1.77598 31.2157 4.65598 34.0957L4.70399 34.0477C4.70399 34.0477 4.70398 34.0476 4.65598 33.9996L7.87198 30.8796Z" fill="#FBC02D"/>
<path d="M27.3251 22.9013C27.3251 28.6133 22.2851 34.2293 15.9491 34.2293C12.7811 34.2293 9.94907 32.9333 7.88507 30.8693L7.83709 30.9173L4.66907 34.0853C4.66907 34.0853 4.66908 34.0853 4.71708 34.1333C7.06909 36.4853 10.1891 38.0693 13.6931 38.5973C14.4611 38.6933 15.2291 38.7893 15.9971 38.7893C16.7651 38.7893 17.5331 38.7893 18.2531 38.6933C25.9811 37.5893 31.8851 30.9653 31.8851 22.9973H27.3251V22.9013Z" fill="#E53935"/>
</svg>
