<svg width="25" height="25" viewBox="0 0 25 25" fill="none" xmlns="http://www.w3.org/2000/svg">
<path d="M12.5 0C15.8152 0 18.9946 1.31696 21.3388 3.66117C23.683 6.00537 25 9.18479 25 12.5C25 15.8152 23.683 18.9946 21.3388 21.3388C18.9946 23.683 15.8152 25 12.5 25C9.18479 25 6.00537 23.683 3.66117 21.3388C1.31696 18.9946 0 15.8152 0 12.5C0 9.18479 1.31696 6.00537 3.66117 3.66117C6.00537 1.31696 9.18479 0 12.5 0ZM2.34375 12.5C2.34375 15.1936 3.41378 17.7769 5.31845 19.6816C7.22311 21.5862 9.80639 22.6562 12.5 22.6562C15.1936 22.6562 17.7769 21.5862 19.6816 19.6816C21.5862 17.7769 22.6562 15.1936 22.6562 12.5C22.6562 9.80639 21.5862 7.22311 19.6816 5.31845C17.7769 3.41378 15.1936 2.34375 12.5 2.34375C9.80639 2.34375 7.22311 3.41378 5.31845 5.31845C3.41378 7.22311 2.34375 9.80639 2.34375 12.5ZM9.96719 8.16719L16.6297 12.1656C16.6873 12.2004 16.7349 12.2495 16.7679 12.308C16.801 12.3666 16.8184 12.4327 16.8184 12.5C16.8184 12.5673 16.801 12.6334 16.7679 12.692C16.7349 12.7505 16.6873 12.7996 16.6297 12.8344L9.96719 16.8328C9.90794 16.8685 9.84028 16.8878 9.77112 16.8888C9.70197 16.8898 9.63379 16.8724 9.57356 16.8384C9.51334 16.8043 9.46322 16.755 9.42833 16.6952C9.39345 16.6355 9.37504 16.5676 9.375 16.4984V8.50313C9.37476 8.43383 9.39297 8.36572 9.42774 8.30577C9.46251 8.24583 9.51261 8.19622 9.57288 8.16203C9.63316 8.12784 9.70144 8.11029 9.77073 8.1112C9.84002 8.11211 9.90783 8.13143 9.96719 8.16719Z" fill="#247BCE"/>
</svg>
