<svg width="44" height="45" viewBox="0 0 44 45" fill="none" xmlns="http://www.w3.org/2000/svg">
<ellipse cx="22" cy="22.5" rx="22" ry="22.5" fill="#181818" fill-opacity="0.7"/>
<path d="M21.5548 14.2058V22.6409V31.0761C21.5543 31.3063 21.4895 31.5316 21.368 31.7253C21.2465 31.919 21.0734 32.0731 20.8691 32.1694C20.6649 32.2657 20.438 32.3001 20.2152 32.2687C19.9925 32.2372 19.7831 32.1412 19.612 31.9919L14.4504 27.461H11.7464C11.018 27.461 10.3194 27.1648 9.80439 26.6375C9.28935 26.1102 9 25.395 9 24.6493V20.6326C9 19.0805 10.2304 17.8209 11.7464 17.8209H14.4488L19.612 13.29C19.7829 13.14 19.9923 13.0434 20.2153 13.0115C20.4383 12.9797 20.6655 13.014 20.8701 13.1104C21.0746 13.2068 21.2478 13.3613 21.3692 13.5554C21.4905 13.7496 21.555 13.9753 21.5548 14.2058ZM26.7023 18.1743L29.4016 20.9378L32.1009 18.1743C32.3239 17.9612 32.6191 17.8451 32.9242 17.8505C33.2293 17.8559 33.5204 17.9824 33.7361 18.2032C33.9519 18.4241 34.0754 18.7222 34.0807 19.0345C34.0859 19.3468 33.9725 19.649 33.7644 19.8774L31.0651 22.6409L33.7644 25.4045C33.9193 25.5517 34.0326 25.7391 34.0922 25.9468C34.1519 26.1544 34.1557 26.3747 34.1034 26.5844C34.051 26.7941 33.9443 26.9855 33.7946 27.1384C33.6449 27.2912 33.4577 27.3999 33.2528 27.453C33.0482 27.5065 32.8332 27.5027 32.6306 27.4419C32.4279 27.3811 32.2449 27.2656 32.1009 27.1076L29.4016 24.344L26.7023 27.1076C26.5584 27.2662 26.3754 27.3821 26.1726 27.4432C25.9698 27.5043 25.7546 27.5082 25.5498 27.4546C25.3449 27.401 25.158 27.2918 25.0087 27.1385C24.8594 26.9853 24.7532 26.7936 24.7014 26.5838C24.6491 26.3743 24.6528 26.1543 24.7122 25.9468C24.7716 25.7393 24.8844 25.552 25.0388 25.4045L27.7381 22.6409L25.0388 19.8774C24.8838 19.7301 24.7706 19.5428 24.7109 19.3351C24.6513 19.1275 24.6474 18.9072 24.6998 18.6975C24.7522 18.4877 24.8588 18.2964 25.0085 18.1435C25.1582 17.9907 25.3454 17.882 25.5504 17.8289C25.755 17.7754 25.9699 17.7792 26.1726 17.84C26.3753 17.9008 26.5582 18.0162 26.7023 18.1743ZM15.6509 19.9417C15.4375 20.1285 15.1659 20.2311 14.8851 20.2309H11.7464C11.6423 20.2309 11.5425 20.2732 11.4689 20.3485C11.3954 20.4239 11.354 20.526 11.354 20.6326V24.6493C11.354 24.871 11.5298 25.051 11.7464 25.051H14.8851C15.166 25.051 15.4375 25.1538 15.6509 25.3402L19.2008 28.4572V22.6409V16.8247L15.6509 19.9417Z" fill="#5B5B5B"/>
</svg>
