<svg width="44" height="45" viewBox="0 0 44 45" fill="none" xmlns="http://www.w3.org/2000/svg">
<ellipse cx="22" cy="22.5" rx="22" ry="22.5" fill="#181818" fill-opacity="0.7"/>
<path d="M21.3133 12.9677C21.5181 13.0639 21.6916 13.2181 21.8134 13.4121C21.9351 13.6061 21.9998 13.8317 22 14.0622V30.9372C21.9995 31.1675 21.9346 31.3928 21.8129 31.5866C21.6913 31.7804 21.518 31.9345 21.3134 32.0308C21.1089 32.1271 20.8817 32.1616 20.6587 32.1301C20.4356 32.0987 20.226 32.0026 20.0546 31.8533L14.8846 27.3211H12.1786C11.4492 27.3211 10.7498 27.0248 10.234 26.4973C9.71832 25.9699 9.42859 25.2545 9.42859 24.5086V20.4908C9.42859 18.9383 10.6606 17.6783 12.1786 17.6783H14.8862L20.0546 13.1461C20.2258 12.9965 20.4354 12.9002 20.6584 12.8686C20.8815 12.8369 21.1088 12.8714 21.3133 12.9677ZM19.6429 16.6818L16.0883 19.7981C15.8748 19.9856 15.6028 20.0887 15.3214 20.089H12.1786C12.0744 20.089 11.9745 20.1313 11.9008 20.2066C11.8271 20.282 11.7857 20.3842 11.7857 20.4908V24.5086C11.7857 24.7304 11.9617 24.9104 12.1786 24.9104H15.3214C15.6027 24.9104 15.8746 25.0133 16.0883 25.1997L19.6429 28.3175V16.6818ZM29.2223 13.4065C29.4433 13.1807 29.7428 13.054 30.0552 13.054C30.3675 13.054 30.667 13.1807 30.888 13.4065C32.0555 14.6004 32.9815 16.0178 33.6133 17.5777C34.2451 19.1377 34.5703 20.8096 34.5703 22.4981C34.5703 24.1866 34.2451 25.8585 33.6133 27.4184C32.9815 28.9784 32.0555 30.3958 30.888 31.5897C30.6646 31.8029 30.3691 31.919 30.0636 31.9136C29.7581 31.9082 29.4666 31.7817 29.2506 31.5608C29.0346 31.3398 28.9109 31.0417 28.9056 30.7293C28.9003 30.4169 29.0139 30.1146 29.2223 29.8861C30.1709 28.9161 30.9234 27.7644 31.4368 26.4969C31.9502 25.2294 32.2145 23.8708 32.2145 22.4989C32.2145 21.1269 31.9502 19.7684 31.4368 18.5009C30.9234 17.2334 30.1709 16.0817 29.2223 15.1116C29.0016 14.8856 28.8776 14.5793 28.8776 14.2599C28.8776 13.9404 29.0016 13.6325 29.2223 13.4065ZM27.5566 16.8152L27.555 16.8168C29.028 18.3237 29.8555 20.3673 29.8555 22.4981C29.8555 24.6289 29.028 26.6724 27.555 28.1793C27.411 28.338 27.2277 28.454 27.0246 28.5151C26.8215 28.5762 26.6061 28.5801 26.401 28.5265C26.1958 28.4728 26.0087 28.3636 25.8592 28.2103C25.7097 28.057 25.6034 27.8653 25.5514 27.6554C25.4991 27.4459 25.5029 27.2258 25.5623 27.0182C25.6217 26.8107 25.7347 26.6233 25.8893 26.4758C26.4001 25.9534 26.8053 25.3333 27.0817 24.6508C27.3581 23.9683 27.5004 23.2368 27.5004 22.4981C27.5004 21.7593 27.3581 21.0278 27.0817 20.3453C26.8053 19.6629 26.4001 19.0427 25.8893 18.5204C25.6682 18.2943 25.544 17.9876 25.544 17.6678C25.544 17.348 25.6682 17.0413 25.8893 16.8152C26.1104 16.5891 26.4103 16.4621 26.7229 16.4621C27.0356 16.4621 27.3355 16.5891 27.5566 16.8152Z" fill="#5B5B5B"/>
</svg>
