<svg width="45" height="45" viewBox="0 0 45 45" fill="none" xmlns="http://www.w3.org/2000/svg">
<path d="M16.6523 19.1251L27.3839 0.540775C24.0655 -0.201017 20.622 -0.179397 17.3131 0.604005C14.0043 1.38741 10.9166 2.91213 8.28301 5.06312L16.5173 19.3501L16.6523 19.1251ZM43.965 15.7502C41.8952 9.18047 36.8781 3.91566 30.4662 1.48574L22.2318 15.7502H43.965ZM44.55 18.0002H27.6989L28.3513 19.1251L39.0605 37.687C42.8887 33.5575 45.0109 28.1311 45 22.5C45 20.9476 44.8425 19.4626 44.55 18.0002ZM14.7175 22.5L5.94321 7.31304C3.53285 9.92416 1.77801 13.0711 0.823515 16.4941C-0.130977 19.9172 -0.257749 23.5182 0.453664 26.9998H17.3048L14.7175 22.5ZM1.03862 29.2498C3.10844 35.8195 8.12553 41.0843 14.5375 43.5143L22.7718 29.2498H1.03862ZM26.394 29.2498L17.6197 44.4592C20.9381 45.201 24.3817 45.1794 27.6905 44.396C30.9994 43.6126 34.0871 42.0879 36.7206 39.9369L28.4863 25.6499L26.394 29.2498Z" fill="white"/>
</svg>
